<svg width="888" height="864" viewBox="0 0 888 864" fill="none" xmlns="http://www.w3.org/2000/svg">
<g clip-path="url(#clip0_2_11)">
<path d="M199.8 669.6H222V691.2H199.8V669.6Z" fill="#262F32" fill-opacity="0.3"/>
<path d="M44.4 583.2H66.6V604.8H44.4V583.2Z" fill="#262F32" fill-opacity="0.3"/>
<path d="M0 604.8H22.2V626.4H0V604.8Z" fill="#262F32" fill-opacity="0.3"/>
<path d="M111 626.4H133.2V648H111V626.4Z" fill="#262F32" fill-opacity="0.3"/>
<path d="M155.4 626.4H177.6V648H155.4V626.4Z" fill="#262F32" fill-opacity="0.3"/>
<path d="M66.6 626.4H88.8V648H66.6V626.4Z" fill="#262F32" fill-opacity="0.3"/>
<path d="M155.4 712.8H177.6V734.4H155.4V712.8Z" fill="#262F32" fill-opacity="0.3"/>
<path d="M599.4 712.8H621.6V734.4H599.4V712.8Z" fill="#262F32" fill-opacity="0.3"/>
<path d="M288.6 712.8H310.8V734.4H288.6V712.8Z" fill="#262F32" fill-opacity="0.3"/>
<path d="M732.6 712.8H754.8V734.4H732.6V712.8Z" fill="#262F32" fill-opacity="0.3"/>
<path d="M199.8 626.4H222V648H199.8V626.4Z" fill="#262F32" fill-opacity="0.3"/>
<path d="M88.8 496.8H111V518.4H88.8V496.8Z" fill="#262F32" fill-opacity="0.3"/>
<path d="M0 540H22.2V561.6H0V540Z" fill="#262F32" fill-opacity="0.3"/>
<path d="M0 648H22.2V669.6H0V648Z" fill="#262F32" fill-opacity="0.3"/>
<path d="M133.2 648H155.4V669.6H133.2V648Z" fill="#262F32" fill-opacity="0.3"/>
<path d="M177.6 734.4H199.8V756H177.6V734.4Z" fill="#262F32" fill-opacity="0.3"/>
<path d="M111 561.6H133.2V583.2H111V561.6Z" fill="#262F32" fill-opacity="0.3"/>
<path d="M177.6 561.6H199.8V583.2H177.6V561.6Z" fill="#262F32" fill-opacity="0.3"/>
<path d="M0 432H22.2V453.6H0V432Z" fill="#262F32" fill-opacity="0.3"/>
<path d="M155.4 406.944H177.6V428.544H155.4V406.944Z" fill="#262F32" fill-opacity="0.3"/>
<path d="M199.8 226.8H222V248.4H199.8V226.8Z" fill="#262F32" fill-opacity="0.3"/>
<path d="M255.3 75.6H277.5V97.2H255.3V75.6Z" fill="#262F32" fill-opacity="0.3"/>
<path d="M66.6 165.599H88.8V187.199H66.6V165.599Z" fill="#262F32" fill-opacity="0.3"/>
<path d="M0 75.6H22.2V97.2H0V75.6Z" fill="#262F32" fill-opacity="0.3"/>
<path d="M133.2 23.0394H155.4V44.6394H133.2V23.0394Z" fill="#262F32" fill-opacity="0.3"/>
<path d="M344.1 140.4H366.3V162H344.1V140.4Z" fill="#262F32" fill-opacity="0.3"/>
<path d="M399.6 0H421.8V21.6H399.6V0Z" fill="#262F32" fill-opacity="0.3"/>
<path d="M344.1 292.321H366.3V313.921H344.1V292.321Z" fill="#262F32" fill-opacity="0.3"/>
<path d="M421.8 205.2H444V226.8H421.8V205.2Z" fill="#262F32" fill-opacity="0.3"/>
<path d="M133.2 313.921H155.4V335.521H133.2V313.921Z" fill="#262F32" fill-opacity="0.3"/>
<path d="M88.8 432H111V453.6H88.8V432Z" fill="#262F32" fill-opacity="0.3"/>
<path d="M133.2 604.8H155.4V626.4H133.2V604.8Z" fill="#262F32" fill-opacity="0.3"/>
<path d="M22.2 475.2H44.4V496.8H22.2V475.2Z" fill="#262F32" fill-opacity="0.3"/>
<path d="M133.2 475.2H155.4V496.8H133.2V475.2Z" fill="#262F32" fill-opacity="0.3"/>
<path d="M44.4 691.2H66.6V712.8H44.4V691.2Z" fill="#262F32" fill-opacity="0.3"/>
<path d="M177.6 691.2H199.8V712.8H177.6V691.2Z" fill="#262F32" fill-opacity="0.3"/>
<path d="M44.4 518.4H66.6V540H44.4V518.4Z" fill="#262F32" fill-opacity="0.3"/>
<path d="M44.4 367.2H66.6V388.8H44.4V367.2Z" fill="#262F32" fill-opacity="0.3"/>
<path d="M155.4 518.4H177.6V540H155.4V518.4Z" fill="#262F32" fill-opacity="0.3"/>
<path d="M421.8 669.6H444V691.2H421.8V669.6Z" fill="#262F32" fill-opacity="0.3"/>
<path d="M266.4 583.2H288.6V604.8H266.4V583.2Z" fill="#262F32" fill-opacity="0.3"/>
<path d="M333 626.4H355.2V648H333V626.4Z" fill="#262F32" fill-opacity="0.3"/>
<path d="M377.4 626.4H399.6V648H377.4V626.4Z" fill="#262F32" fill-opacity="0.3"/>
<path d="M288.6 626.4H310.8V648H288.6V626.4Z" fill="#262F32" fill-opacity="0.3"/>
<path d="M421.8 626.4H444V648H421.8V626.4Z" fill="#262F32" fill-opacity="0.3"/>
<path d="M310.8 496.8H333V518.4H310.8V496.8Z" fill="#262F32" fill-opacity="0.3"/>
<path d="M222 540H244.2V561.6H222V540Z" fill="#262F32" fill-opacity="0.3"/>
<path d="M222 648H244.2V669.6H222V648Z" fill="#262F32" fill-opacity="0.3"/>
<path d="M355.2 648H377.4V669.6H355.2V648Z" fill="#262F32" fill-opacity="0.3"/>
<path d="M222 734.4H244.2V756H222V734.4Z" fill="#262F32" fill-opacity="0.3"/>
<path d="M399.6 734.4H421.8V756H399.6V734.4Z" fill="#262F32" fill-opacity="0.3"/>
<path d="M377.4 712.8H399.6V734.4H377.4V712.8Z" fill="#262F32" fill-opacity="0.3"/>
<path d="M333 561.6H355.2V583.2H333V561.6Z" fill="#262F32" fill-opacity="0.3"/>
<path d="M399.6 561.6H421.8V583.2H399.6V561.6Z" fill="#262F32" fill-opacity="0.3"/>
<path d="M222 432H244.2V453.6H222V432Z" fill="#262F32" fill-opacity="0.3"/>
<path d="M377.4 432H399.6V453.6H377.4V432Z" fill="#262F32" fill-opacity="0.3"/>
<path d="M310.8 406.944H333V428.544H310.8V406.944Z" fill="#262F32" fill-opacity="0.3"/>
<path d="M355.2 604.8H377.4V626.4H355.2V604.8Z" fill="#262F32" fill-opacity="0.3"/>
<path d="M244.2 475.2H266.4V496.8H244.2V475.2Z" fill="#262F32" fill-opacity="0.3"/>
<path d="M355.2 475.2H377.4V496.8H355.2V475.2Z" fill="#262F32" fill-opacity="0.3"/>
<path d="M244.2 691.2H266.4V712.8H244.2V691.2Z" fill="#262F32" fill-opacity="0.3"/>
<path d="M399.6 691.2H421.8V712.8H399.6V691.2Z" fill="#262F32" fill-opacity="0.3"/>
<path d="M266.4 518.4H288.6V540H266.4V518.4Z" fill="#262F32" fill-opacity="0.3"/>
<path d="M266.4 367.2H288.6V388.8H266.4V367.2Z" fill="#262F32" fill-opacity="0.3"/>
<path d="M377.4 518.4H399.6V540H377.4V518.4Z" fill="#262F32" fill-opacity="0.3"/>
<path d="M399.6 367.2H421.8V388.8H399.6V367.2Z" fill="#262F32" fill-opacity="0.3"/>
<path d="M643.8 669.6H666V691.2H643.8V669.6Z" fill="#262F32" fill-opacity="0.3"/>
<path d="M488.4 583.2H510.6V604.8H488.4V583.2Z" fill="#262F32" fill-opacity="0.3"/>
<path d="M555 626.4H577.2V648H555V626.4Z" fill="#262F32" fill-opacity="0.3"/>
<path d="M599.4 626.4H621.6V648H599.4V626.4Z" fill="#262F32" fill-opacity="0.3"/>
<path d="M510.6 626.4H532.8V648H510.6V626.4Z" fill="#262F32" fill-opacity="0.3"/>
<path d="M643.8 626.4H666V648H643.8V626.4Z" fill="#262F32" fill-opacity="0.3"/>
<path d="M532.8 496.8H555V518.4H532.8V496.8Z" fill="#262F32" fill-opacity="0.3"/>
<path d="M444 540H466.2V561.6H444V540Z" fill="#262F32" fill-opacity="0.3"/>
<path d="M444 648H466.2V669.6H444V648Z" fill="#262F32" fill-opacity="0.3"/>
<path d="M577.2 648H599.4V669.6H577.2V648Z" fill="#262F32" fill-opacity="0.3"/>
<path d="M621.6 734.4H643.8V756H621.6V734.4Z" fill="#262F32" fill-opacity="0.3"/>
<path d="M555 561.6H577.2V583.2H555V561.6Z" fill="#262F32" fill-opacity="0.3"/>
<path d="M621.6 561.6H643.8V583.2H621.6V561.6Z" fill="#262F32" fill-opacity="0.3"/>
<path d="M444 432H466.2V453.6H444V432Z" fill="#262F32" fill-opacity="0.3"/>
<path d="M599.4 406.944H621.6V428.544H599.4V406.944Z" fill="#262F32" fill-opacity="0.3"/>
<path d="M643.8 226.8H666V248.4H643.8V226.8Z" fill="#262F32" fill-opacity="0.3"/>
<path d="M699.3 75.6H721.5V97.2H699.3V75.6Z" fill="#262F32" fill-opacity="0.3"/>
<path d="M510.6 165.599H532.8V187.199H510.6V165.599Z" fill="#262F32" fill-opacity="0.3"/>
<path d="M444 75.6H466.2V97.2H444V75.6Z" fill="#262F32" fill-opacity="0.3"/>
<path d="M577.2 23.0394H599.4V44.6394H577.2V23.0394Z" fill="#262F32" fill-opacity="0.3"/>
<path d="M788.1 140.4H810.3V162H788.1V140.4Z" fill="#262F32" fill-opacity="0.3"/>
<path d="M843.6 0H865.8V21.6H843.6V0Z" fill="#262F32" fill-opacity="0.3"/>
<path d="M788.1 292.321H810.3V313.921H788.1V292.321Z" fill="#262F32" fill-opacity="0.3"/>
<path d="M865.8 205.2H888V226.8H865.8V205.2Z" fill="#262F32" fill-opacity="0.3"/>
<path d="M577.2 313.921H599.4V335.521H577.2V313.921Z" fill="#262F32" fill-opacity="0.3"/>
<path d="M532.8 432H555V453.6H532.8V432Z" fill="#262F32" fill-opacity="0.3"/>
<path d="M577.2 604.8H599.4V626.4H577.2V604.8Z" fill="#262F32" fill-opacity="0.3"/>
<path d="M466.2 475.2H488.4V496.8H466.2V475.2Z" fill="#262F32" fill-opacity="0.3"/>
<path d="M577.2 475.2H599.4V496.8H577.2V475.2Z" fill="#262F32" fill-opacity="0.3"/>
<path d="M621.6 691.2H643.8V712.8H621.6V691.2Z" fill="#262F32" fill-opacity="0.3"/>
<path d="M488.4 518.4H510.6V540H488.4V518.4Z" fill="#262F32" fill-opacity="0.3"/>
<path d="M488.4 367.2H510.6V388.8H488.4V367.2Z" fill="#262F32" fill-opacity="0.3"/>
<path d="M599.4 518.4H621.6V540H599.4V518.4Z" fill="#262F32" fill-opacity="0.3"/>
<path d="M865.8 669.6H888V691.2H865.8V669.6Z" fill="#262F32" fill-opacity="0.3"/>
<path d="M710.4 583.2H732.6V604.8H710.4V583.2Z" fill="#262F32" fill-opacity="0.3"/>
<path d="M777 626.4H799.2V648H777V626.4Z" fill="#262F32" fill-opacity="0.3"/>
<path d="M821.4 626.4H843.6V648H821.4V626.4Z" fill="#262F32" fill-opacity="0.3"/>
<path d="M732.6 626.4H754.8V648H732.6V626.4Z" fill="#262F32" fill-opacity="0.3"/>
<path d="M865.8 626.4H888V648H865.8V626.4Z" fill="#262F32" fill-opacity="0.3"/>
<path d="M754.8 496.8H777V518.4H754.8V496.8Z" fill="#262F32" fill-opacity="0.3"/>
<path d="M666 540H688.2V561.6H666V540Z" fill="#262F32" fill-opacity="0.3"/>
<path d="M666 648H688.2V669.6H666V648Z" fill="#262F32" fill-opacity="0.3"/>
<path d="M799.2 648H821.4V669.6H799.2V648Z" fill="#262F32" fill-opacity="0.3"/>
<path d="M666 734.4H688.2V756H666V734.4Z" fill="#262F32" fill-opacity="0.3"/>
<path d="M843.6 734.4H865.8V756H843.6V734.4Z" fill="#262F32" fill-opacity="0.3"/>
<path d="M777 561.6H799.2V583.2H777V561.6Z" fill="#262F32" fill-opacity="0.3"/>
<path d="M843.6 561.6H865.8V583.2H843.6V561.6Z" fill="#262F32" fill-opacity="0.3"/>
<path d="M666 432H688.2V453.6H666V432Z" fill="#262F32" fill-opacity="0.3"/>
<path d="M821.4 432H843.6V453.6H821.4V432Z" fill="#262F32" fill-opacity="0.3"/>
<path d="M754.8 432H777V453.6H754.8V432Z" fill="#262F32" fill-opacity="0.3"/>
<path fill-rule="evenodd" clip-rule="evenodd" d="M66.6 734.4H44.4V756H22.2V777.6H0V820.8H22.2V842.4H0V864H44.4V842.4H66.6V864H133.2V842.4H155.4V864H177.6V842.4H199.8V864H266.4V842.4H288.6V864H355.2V842.4H377.4V864H399.6V842.4H421.8V864H488.4V842.4H510.6V864H577.2V842.4H599.4V864H621.6V842.4H643.8V864H710.4V842.4H732.6V864H799.2V842.4H821.4V864H843.6V842.4H865.8V864H888V842.4H865.8V820.8H888V799.2H865.8V777.6H888V756H865.8V777.6H843.6V756H821.4V734.4H799.2V756H777V777.6H754.8V756H732.6V734.4H710.4V756H688.2V777.6H666V756H643.8V777.6H621.6V756H599.4V734.4H577.2V756H555V777.6H532.8V756H510.6V734.4H488.4V756H466.2V777.6H444V756H421.8V777.6H399.6V756H377.4V734.4H355.2V756H333V777.6H310.8V756H288.6V734.4H266.4V756H244.2V777.6H222V756H199.8V777.6H177.6V756H155.4V734.4H133.2V756H111V777.6H88.8V756H66.6V734.4ZM88.8 777.6V799.2H66.6V777.6H88.8ZM111 777.6H133.2V799.2H111V777.6ZM199.8 777.6V799.2H222V777.6H199.8ZM310.8 777.6V799.2H288.6V777.6H310.8ZM333 777.6H355.2V799.2H333V777.6ZM421.8 777.6V799.2H444V777.6H421.8ZM532.8 777.6V799.2H510.6V777.6H532.8ZM555 777.6H577.2V799.2H555V777.6ZM643.8 777.6V799.2H666V777.6H643.8ZM754.8 777.6V799.2H732.6V777.6H754.8ZM777 777.6H799.2V799.2H777V777.6ZM799.2 842.4H754.8V820.8H799.2V842.4ZM688.2 820.8V842.4H643.8V820.8H688.2ZM688.2 820.8V799.2H710.4V820.8H688.2ZM577.2 842.4H532.8V820.8H577.2V842.4ZM466.2 820.8V842.4H421.8V820.8H466.2ZM466.2 820.8V799.2H488.4V820.8H466.2ZM355.2 842.4H310.8V820.8H355.2V842.4ZM244.2 820.8V842.4H199.8V820.8H244.2ZM244.2 820.8V799.2H266.4V820.8H244.2ZM133.2 842.4H88.8V820.8H133.2V842.4ZM22.2 820.8V799.2H44.4V820.8H22.2ZM843.6 799.2H821.4V820.8H843.6V799.2ZM621.6 799.2H599.4V820.8H621.6V799.2ZM399.6 799.2H377.4V820.8H399.6V799.2ZM177.6 799.2H155.4V820.8H177.6V799.2Z" fill="#262F32" fill-opacity="0.3"/>
<path d="M799.2 604.8H821.4V626.4H799.2V604.8Z" fill="#262F32" fill-opacity="0.3"/>
<path d="M688.2 475.2H710.4V496.8H688.2V475.2Z" fill="#262F32" fill-opacity="0.3"/>
<path d="M799.2 475.2H821.4V496.8H799.2V475.2Z" fill="#262F32" fill-opacity="0.3"/>
<path d="M688.2 691.2H710.4V712.8H688.2V691.2Z" fill="#262F32" fill-opacity="0.3"/>
<path d="M843.6 691.2H865.8V712.8H843.6V691.2Z" fill="#262F32" fill-opacity="0.3"/>
<path d="M821.4 712.8H843.6V734.4H821.4V712.8Z" fill="#262F32" fill-opacity="0.3"/>
<path d="M865.8 712.8H888V734.4H865.8V712.8Z" fill="#262F32" fill-opacity="0.3"/>
<path d="M66.6 669.6H88.8V691.2H66.6V669.6Z" fill="#262F32" fill-opacity="0.3"/>
<path d="M133.2 691.2H155.4V712.8H133.2V691.2Z" fill="#262F32" fill-opacity="0.3"/>
<path d="M111 691.2H88.8V712.8H111V691.2Z" fill="#262F32" fill-opacity="0.3"/>
<path d="M88.8 734.4H111V756H88.8V734.4Z" fill="#262F32" fill-opacity="0.3"/>
<path d="M266.4 669.6V691.2H310.8V712.8H333V734.4H355.2V712.8H333V691.2H310.8V669.6H266.4Z" fill="#262F32" fill-opacity="0.3"/>
<path d="M488.4 669.6V691.2H532.8V669.6H488.4Z" fill="#262F32" fill-opacity="0.3"/>
<path d="M532.8 712.8H510.6V734.4H532.8V756H555V734.4H532.8V712.8Z" fill="#262F32" fill-opacity="0.3"/>
<path d="M555 691.2H577.2V712.8H555V691.2Z" fill="#262F32" fill-opacity="0.3"/>
<path d="M599.4 669.6H621.6V691.2H599.4V669.6Z" fill="#262F32" fill-opacity="0.3"/>
<path d="M821.4 691.2H799.2V712.8H777V691.2H754.8V669.6H710.4V691.2H754.8V712.8H777V734.4H799.2V712.8H821.4V691.2Z" fill="#262F32" fill-opacity="0.3"/>
<path d="M710.4 518.4H732.6V540H710.4V518.4Z" fill="#262F32" fill-opacity="0.3"/>
<path d="M710.4 367.2H732.6V388.8H710.4V367.2Z" fill="#262F32" fill-opacity="0.3"/>
<path d="M821.4 518.4H843.6V540H821.4V518.4Z" fill="#262F32" fill-opacity="0.3"/>
<path d="M843.6 367.2H865.8V388.8H843.6V367.2Z" fill="#262F32" fill-opacity="0.3"/>
<path d="M22.2 712.8H0V756H22.2V712.8Z" fill="#262F32" fill-opacity="0.3"/>
<path d="M466.2 712.8H421.8V734.4H444V756H466.2V712.8Z" fill="#262F32" fill-opacity="0.3"/>
<rect x="222" y="-12" width="424" height="160" fill="#D9D9D9"/>
</g>
<defs>
<clipPath id="clip0_2_11">
<rect width="888" height="864" fill="white"/>
</clipPath>
</defs>
</svg>
